<?xml version="1.0" encoding="UTF-8"?>
<svg version="1.1" xmlns="http://www.w3.org/2000/svg" width="64" height="61">
<path d="M0 0 C1.0686731 -0.00478363 2.13734619 -0.00956726 3.23840332 -0.01449585 C5.49439977 -0.01789331 7.75044555 -0.0087018 10.00634766 0.01220703 C13.45717264 0.0389727 16.9047448 0.01245179 20.35546875 -0.01953125 C22.54948634 -0.01622713 24.7435019 -0.00982085 26.9375 0 C27.96782349 -0.01012115 28.99814697 -0.02024231 30.05969238 -0.03067017 C34.49484887 0.04180425 37.24683342 0.23933323 41.11669922 2.51611328 C43.86760721 7.19185908 43.68523801 11.35844792 43.6328125 16.6953125 C43.63759613 17.7639856 43.64237976 18.83265869 43.64730835 19.93371582 C43.65070581 22.18971227 43.6415143 24.44575805 43.62060547 26.70166016 C43.5938398 30.15248514 43.62036071 33.6000573 43.65234375 37.05078125 C43.64903963 39.24479884 43.64263335 41.4388144 43.6328125 43.6328125 C43.64293365 44.66313599 43.65305481 45.69345947 43.66348267 46.75500488 C43.59100825 51.19016137 43.39347927 53.94214592 41.11669922 57.81201172 C36.44095342 60.56291971 32.27436458 60.38055051 26.9375 60.328125 C25.8688269 60.33290863 24.80015381 60.33769226 23.69909668 60.34262085 C21.44310023 60.34601831 19.18705445 60.3368268 16.93115234 60.31591797 C13.48032736 60.2891523 10.0327552 60.31567321 6.58203125 60.34765625 C4.38801366 60.34435213 2.1939981 60.33794585 0 60.328125 C-1.03032349 60.33824615 -2.06064697 60.34836731 -3.12219238 60.35879517 C-7.55734887 60.28632075 -10.30933342 60.08879177 -14.17919922 57.81201172 C-16.93010721 53.13626592 -16.74773801 48.96967708 -16.6953125 43.6328125 C-16.70248795 42.02980286 -16.70248795 42.02980286 -16.70980835 40.39440918 C-16.71320581 38.13841273 -16.7040143 35.88236695 -16.68310547 33.62646484 C-16.6563398 30.17563986 -16.68286071 26.7280677 -16.71484375 23.27734375 C-16.71153963 21.08332616 -16.70513335 18.8893106 -16.6953125 16.6953125 C-16.70543365 15.66498901 -16.71555481 14.63466553 -16.72598267 13.57312012 C-16.65350825 9.13796363 -16.45597927 6.38597908 -14.17919922 2.51611328 C-9.50345342 -0.23479471 -5.33686458 -0.05242551 0 0 Z " fill="#010101" transform="translate(18.03125,1.3359375)"/>
<path d="M0 0 C6.6 0 13.2 0 20 0 C20 4.29 20 8.58 20 13 C13.4 13 6.8 13 0 13 C0 8.71 0 4.42 0 0 Z " fill="#109E78" transform="translate(33,21)"/>
<path d="M0 0 C6.6 0 13.2 0 20 0 C20 4.29 20 8.58 20 13 C13.4 13 6.8 13 0 13 C0 8.71 0 4.42 0 0 Z " fill="#109E78" transform="translate(11,15)"/>
<path d="M0 0 C1.98 0 3.96 0 6 0 C6 2.31 6 4.62 6 7 C8.97 7 11.94 7 15 7 C15 11.29 15 15.58 15 20 C10.05 20 5.1 20 0 20 C0 13.4 0 6.8 0 0 Z " fill="#0F9470" transform="translate(25,29)"/>
<path d="M0 0 C6.6 0 13.2 0 20 0 C20 4.29 20 8.58 20 13 C13.4 13 6.8 13 0 13 C0 8.71 0 4.42 0 0 Z M2 1 C2 4.3 2 7.6 2 11 C7.61 11 13.22 11 19 11 C19 7.7 19 4.4 19 1 C13.39 1 7.78 1 2 1 Z " fill="#0C8C67" transform="translate(11,15)"/>
<path d="M0 0 C6.6 0 13.2 0 20 0 C20 4.29 20 8.58 20 13 C13.4 13 6.8 13 0 13 C0 8.71 0 4.42 0 0 Z M2 2 C2 5.3 2 8.6 2 12 C7.61 12 13.22 12 19 12 C19 8.7 19 5.4 19 2 C13.39 2 7.78 2 2 2 Z " fill="#08926B" transform="translate(33,21)"/>
</svg>
